G04 MADE WITH FRITZING*
G04 WWW.FRITZING.ORG*
G04 DOUBLE SIDED*
G04 HOLES PLATED*
G04 CONTOUR ON CENTER OF CONTOUR VECTOR*
%ASAXBY*%
%FSLAX23Y23*%
%MOIN*%
%OFA0B0*%
%SFA1.0B1.0*%
%ADD10C,0.080555*%
%ADD11C,0.080583*%
%ADD12C,0.090000*%
%ADD13C,0.084000*%
%ADD14C,0.210000*%
%ADD15C,0.096614*%
%ADD16R,0.080542X0.080570*%
%ADD17R,0.090000X0.090000*%
%ADD18R,0.001000X0.001000*%
%LNMASK1*%
G90*
G70*
G54D10*
X2553Y773D03*
X2453Y773D03*
X2353Y773D03*
X2253Y773D03*
X2153Y773D03*
X2053Y773D03*
X1953Y773D03*
X1853Y773D03*
X1753Y773D03*
G54D11*
X1653Y773D03*
X1553Y773D03*
X1453Y773D03*
G54D10*
X1353Y773D03*
X1253Y773D03*
G54D11*
X1153Y773D03*
X1053Y773D03*
X953Y773D03*
G54D10*
X2553Y173D03*
X2453Y173D03*
X2353Y173D03*
X2253Y173D03*
X2153Y173D03*
X2053Y173D03*
X1753Y173D03*
G54D11*
X1653Y173D03*
G54D10*
X1853Y173D03*
X1953Y173D03*
G54D11*
X1553Y173D03*
X1453Y173D03*
G54D10*
X1353Y173D03*
X1253Y173D03*
G54D11*
X1153Y173D03*
X1053Y173D03*
X953Y173D03*
G54D12*
X1771Y1073D03*
X1971Y1073D03*
X2171Y1073D03*
X2371Y1073D03*
X2571Y1073D03*
X2771Y1073D03*
X371Y1073D03*
X571Y1073D03*
X771Y1073D03*
X971Y1073D03*
X1171Y1073D03*
X1371Y1073D03*
X1571Y1073D03*
G54D13*
X184Y500D03*
X184Y609D03*
X184Y718D03*
X184Y827D03*
X184Y936D03*
X72Y555D03*
X72Y664D03*
X72Y773D03*
X72Y882D03*
G54D14*
X128Y226D03*
X128Y1211D03*
G54D13*
X184Y500D03*
X184Y609D03*
X184Y718D03*
X184Y827D03*
X184Y936D03*
X72Y555D03*
X72Y664D03*
X72Y773D03*
X72Y882D03*
G54D14*
X128Y226D03*
X128Y1211D03*
G54D12*
X3028Y1309D03*
X3028Y1109D03*
X3028Y909D03*
X3028Y709D03*
X3028Y509D03*
X3028Y309D03*
X3028Y109D03*
G54D15*
X2878Y448D03*
X353Y773D03*
X353Y98D03*
G54D16*
X2553Y773D03*
G54D17*
X1771Y1073D03*
X371Y1073D03*
X3028Y1309D03*
G54D18*
X143Y542D02*
X226Y542D01*
X143Y541D02*
X226Y541D01*
X143Y540D02*
X226Y540D01*
X143Y539D02*
X226Y539D01*
X143Y538D02*
X226Y538D01*
X143Y537D02*
X226Y537D01*
X143Y536D02*
X226Y536D01*
X143Y535D02*
X226Y535D01*
X143Y534D02*
X226Y534D01*
X143Y533D02*
X226Y533D01*
X143Y532D02*
X226Y532D01*
X143Y531D02*
X226Y531D01*
X143Y530D02*
X226Y530D01*
X143Y529D02*
X226Y529D01*
X143Y528D02*
X226Y528D01*
X143Y527D02*
X226Y527D01*
X143Y526D02*
X226Y526D01*
X143Y525D02*
X226Y525D01*
X143Y524D02*
X226Y524D01*
X143Y523D02*
X226Y523D01*
X143Y522D02*
X226Y522D01*
X143Y521D02*
X226Y521D01*
X143Y520D02*
X226Y520D01*
X143Y519D02*
X226Y519D01*
X143Y518D02*
X226Y518D01*
X143Y517D02*
X226Y517D01*
X143Y516D02*
X226Y516D01*
X143Y515D02*
X180Y515D01*
X189Y515D02*
X226Y515D01*
X143Y514D02*
X177Y514D01*
X192Y514D02*
X226Y514D01*
X143Y513D02*
X176Y513D01*
X194Y513D02*
X226Y513D01*
X143Y512D02*
X174Y512D01*
X195Y512D02*
X226Y512D01*
X143Y511D02*
X173Y511D01*
X196Y511D02*
X226Y511D01*
X143Y510D02*
X172Y510D01*
X197Y510D02*
X226Y510D01*
X143Y509D02*
X172Y509D01*
X198Y509D02*
X226Y509D01*
X143Y508D02*
X171Y508D01*
X198Y508D02*
X226Y508D01*
X143Y507D02*
X170Y507D01*
X199Y507D02*
X226Y507D01*
X143Y506D02*
X170Y506D01*
X199Y506D02*
X226Y506D01*
X143Y505D02*
X170Y505D01*
X199Y505D02*
X226Y505D01*
X143Y504D02*
X169Y504D01*
X200Y504D02*
X226Y504D01*
X143Y503D02*
X169Y503D01*
X200Y503D02*
X226Y503D01*
X143Y502D02*
X169Y502D01*
X200Y502D02*
X226Y502D01*
X143Y501D02*
X169Y501D01*
X200Y501D02*
X226Y501D01*
X143Y500D02*
X169Y500D01*
X200Y500D02*
X226Y500D01*
X143Y499D02*
X169Y499D01*
X200Y499D02*
X226Y499D01*
X143Y498D02*
X169Y498D01*
X200Y498D02*
X226Y498D01*
X143Y497D02*
X169Y497D01*
X200Y497D02*
X226Y497D01*
X143Y496D02*
X170Y496D01*
X199Y496D02*
X226Y496D01*
X143Y495D02*
X170Y495D01*
X199Y495D02*
X226Y495D01*
X143Y494D02*
X171Y494D01*
X199Y494D02*
X226Y494D01*
X143Y493D02*
X171Y493D01*
X198Y493D02*
X226Y493D01*
X143Y492D02*
X172Y492D01*
X197Y492D02*
X226Y492D01*
X143Y491D02*
X173Y491D01*
X196Y491D02*
X226Y491D01*
X143Y490D02*
X174Y490D01*
X196Y490D02*
X226Y490D01*
X143Y489D02*
X175Y489D01*
X194Y489D02*
X226Y489D01*
X143Y488D02*
X176Y488D01*
X193Y488D02*
X226Y488D01*
X143Y487D02*
X178Y487D01*
X191Y487D02*
X226Y487D01*
X143Y486D02*
X181Y486D01*
X188Y486D02*
X226Y486D01*
X143Y485D02*
X226Y485D01*
X143Y484D02*
X226Y484D01*
X143Y483D02*
X226Y483D01*
X143Y482D02*
X226Y482D01*
X143Y481D02*
X226Y481D01*
X143Y480D02*
X226Y480D01*
X143Y479D02*
X226Y479D01*
X143Y478D02*
X226Y478D01*
X143Y477D02*
X226Y477D01*
X143Y476D02*
X226Y476D01*
X143Y475D02*
X226Y475D01*
X143Y474D02*
X226Y474D01*
X143Y473D02*
X226Y473D01*
X143Y472D02*
X226Y472D01*
X143Y471D02*
X226Y471D01*
X143Y470D02*
X226Y470D01*
X143Y469D02*
X226Y469D01*
X143Y468D02*
X226Y468D01*
X143Y467D02*
X226Y467D01*
X143Y466D02*
X226Y466D01*
X143Y465D02*
X226Y465D01*
X143Y464D02*
X226Y464D01*
X143Y463D02*
X226Y463D01*
X143Y462D02*
X226Y462D01*
X143Y461D02*
X226Y461D01*
X143Y460D02*
X226Y460D01*
X143Y459D02*
X226Y459D01*
D02*
G04 End of Mask1*
M02*