; NON-PLATED HOLES START AT T1
; THROUGH (PLATED) HOLES START AT T100
M48
INCH
T1C0.086614
T100C0.040000
T101C0.130000
T102C0.037250
T103C0.037222
%
T1
X003530Y007727
X003530Y000977
X028780Y004477
T100
X007713Y010727
X005713Y010727
X000722Y008817
X025713Y010727
X030280Y001090
X013713Y010727
X030280Y003090
X000722Y007727
X017713Y010727
X015713Y010727
X000722Y005549
X019713Y010727
X030280Y009090
X030280Y011090
X001840Y007183
X001840Y009364
X001840Y008274
X000722Y006640
X030280Y007090
X021713Y010727
X003713Y010727
X009713Y010727
X011713Y010727
X030280Y005090
X030280Y013090
X027713Y010727
X001840Y006093
X001840Y005002
X023713Y010727
T101
X001281Y012105
X001281Y002262
T102
X016530Y007727
X010530Y001727
X014530Y007727
X015530Y007727
X010530Y007727
X009530Y001727
X016530Y001727
X011530Y007727
X009530Y007727
X011530Y001727
X014530Y001727
X015530Y001727
T103
X013530Y001727
X018530Y001727
X019530Y001727
X020530Y001727
X023530Y007727
X012530Y001727
X018530Y007727
X017530Y001727
X012530Y007727
X013530Y007727
X022530Y007727
X023530Y001727
X024530Y007727
X024530Y001727
X025530Y007727
X020530Y007727
X022530Y001727
X025530Y001727
X017530Y007727
X019530Y007727
X021530Y001727
X021530Y007727
T00
M30
